<svg width="1920" height="1080" viewBox="0 0 1920 1080" fill="none" xmlns="http://www.w3.org/2000/svg">
  <!-- Dark tech background with connected nodes -->
  <rect width="1920" height="1080" fill="#0a0a0f"/>
  
  <!-- Gradient overlay -->
  <rect width="1920" height="1080" fill="url(#bgGradient)" opacity="0.4"/>
  
  <!-- Nodes and connections -->
  <circle cx="150" cy="100" r="4" fill="#06B6D4" opacity="0.6"/>
  <circle cx="350" cy="150" r="3" fill="#3B82F6" opacity="0.5"/>
  <circle cx="180" cy="300" r="3" fill="#A855F7" opacity="0.5"/>
  <circle cx="80" cy="450" r="4" fill="#EC4899" opacity="0.6"/>
  <line x1="150" y1="100" x2="350" y2="150" stroke="#06B6D4" stroke-width="1" opacity="0.2"/>
  <line x1="150" y1="100" x2="180" y2="300" stroke="#3B82F6" stroke-width="1" opacity="0.2"/>
  <line x1="180" y1="300" x2="80" y2="450" stroke="#A855F7" stroke-width="1" opacity="0.2"/>
  
  <circle cx="1750" cy="120" r="3" fill="#EC4899" opacity="0.6"/>
  <circle cx="1820" cy="280" r="4" fill="#A855F7" opacity="0.5"/>
  <circle cx="1650" cy="450" r="3" fill="#06B6D4" opacity="0.5"/>
  <circle cx="1770" cy="650" r="4" fill="#3B82F6" opacity="0.6"/>
  <line x1="1750" y1="120" x2="1820" y2="280" stroke="#EC4899" stroke-width="1" opacity="0.2"/>
  <line x1="1820" y1="280" x2="1650" y2="450" stroke="#A855F7" stroke-width="1" opacity="0.2"/>
  <line x1="1650" y1="450" x2="1770" y2="650" stroke="#06B6D4" stroke-width="1" opacity="0.2"/>
  
  <circle cx="250" cy="850" r="3" fill="#3B82F6" opacity="0.5"/>
  <circle cx="120" cy="950" r="4" fill="#06B6D4" opacity="0.6"/>
  <circle cx="350" cy="1000" r="3" fill="#EC4899" opacity="0.5"/>
  <line x1="250" y1="850" x2="120" y2="950" stroke="#3B82F6" stroke-width="1" opacity="0.2"/>
  <line x1="120" y1="950" x2="350" y2="1000" stroke="#06B6D4" stroke-width="1" opacity="0.2"/>
  
  <circle cx="1700" cy="900" r="4" fill="#A855F7" opacity="0.6"/>
  <circle cx="1550" cy="1000" r="3" fill="#3B82F6" opacity="0.5"/>
  <line x1="1770" y1="650" x2="1700" y2="900" stroke="#3B82F6" stroke-width="1" opacity="0.2"/>
  <line x1="1700" y1="900" x2="1550" y2="1000" stroke="#A855F7" stroke-width="1" opacity="0.2"/>
  
  <!-- Center nodes -->
  <circle cx="960" cy="200" r="3" fill="#06B6D4" opacity="0.4"/>
  <circle cx="850" cy="540" r="4" fill="#EC4899" opacity="0.5"/>
  <circle cx="1100" cy="650" r="3" fill="#3B82F6" opacity="0.4"/>
  <line x1="960" y1="200" x2="850" y2="540" stroke="#06B6D4" stroke-width="1" opacity="0.15"/>
  <line x1="850" y1="540" x2="1100" y2="650" stroke="#EC4899" stroke-width="1" opacity="0.15"/>
  
  <defs>
    <linearGradient id="bgGradient" x1="0" y1="0" x2="1920" y2="1080" gradientUnits="userSpaceOnUse">
      <stop offset="0%" stop-color="#1e293b"/>
      <stop offset="50%" stop-color="#0f172a"/>
      <stop offset="100%" stop-color="#0a0a0f"/>
    </linearGradient>
  </defs>
</svg>
